<?xml version="1.0" standalone="no" ?>
<!DOCTYPE svg PUBLIC "-//W3C//DTD SVG 1.1//EN" "http://www.w3.org/Graphics/SVG/1.1/DTD/svg11.dtd">
<svg width="160px" height="127px" viewBox="0 0 160 127" style="background-color: #ffffff00" xmlns="http://www.w3.org/2000/svg" xmlns:xlink="http://www.w3.org/1999/xlink" version="1.1" >
<path stroke="transparent" fill="#000000" transform="matrix(0.0666667 0 0 0.0666667 -114.133 -211.067)" d="M 2533.74,3791.27 L 2510.41,3804.73 L 2261,3660.73 L 2284.33,3647.27 L 2533.74,3791.27 Z " />
<path stroke="transparent" fill="#000000" transform="matrix(0.0666667 0 0 0.0666667 -114.133 -211.067)" d="M 2557.07,3737.39 L 2545.4,3757.59 L 2325.15,3630.43 L 2336.81,3610.23 L 2557.07,3737.39 Z " />
<path stroke="transparent" fill="#000000" transform="matrix(0.0666667 0 0 0.0666667 -114.133 -211.067)" d="M 2533.74,4079.27 L 2510.41,4092.73 L 2510.41,3804.73 L 2533.74,3791.27 L 2533.74,4079.27 Z " />
<path stroke="transparent" fill="#000000" transform="matrix(0.0666667 0 0 0.0666667 -114.133 -211.067)" d="M 2783.16,4223.27 L 2759.83,4236.73 L 2510.41,4092.73 L 2533.74,4079.27 L 2783.16,4223.27 Z " />
<path stroke="transparent" fill="#000000" transform="matrix(0.0666667 0 0 0.0666667 -114.133 -211.067)" d="M 2806.48,4169.39 L 2794.82,4189.59 L 2574.56,4062.43 L 2586.23,4042.23 L 2806.48,4169.39 Z " />
<path stroke="transparent" fill="#000000" transform="matrix(0.0666667 0 0 0.0666667 -114.133 -211.067)" d="M 2783.16,4511.27 L 2759.83,4524.73 L 2759.83,4236.73 L 2783.16,4223.27 L 2783.16,4511.27 Z " />
<text x="0" y="0" stroke="transparent" fill="#000000" transform="matrix(0.0666667 0 0 0.0666667 82.4605 104.933)" style="font:normal normal normal 200px 'Arial'" >
N</text>
<text x="0" y="0" stroke="transparent" fill="#000000" transform="matrix(0.0666667 0 0 0.0666667 82.4605 116.056)" style="font:normal normal normal 200px 'Arial'" >
H</text>
<path stroke="transparent" fill="#000000" transform="matrix(0.0666667 0 0 0.0666667 -114.133 -211.067)" d="M 2929.85,4595.96 L 2918.18,4616.16 L 2759.83,4524.73 L 2783.16,4511.27 L 2929.85,4595.96 Z " />
<text x="0" y="0" stroke="transparent" fill="#000000" transform="matrix(0.0666667 0 0 0.0666667 48.8051 104.933)" style="font:normal normal normal 200px 'Arial'" >
O</text>
<path stroke="transparent" fill="#000000" transform="matrix(0.0666667 0 0 0.0666667 -114.133 -211.067)" d="M 2628.15,4647.9 L 2616.49,4627.69 L 2794.82,4524.73 L 2806.48,4544.94 L 2628.15,4647.9 Z " />
<path stroke="transparent" fill="#000000" transform="matrix(0.0666667 0 0 0.0666667 -114.133 -211.067)" d="M 2598.99,4597.39 L 2587.33,4577.19 L 2765.66,4474.23 L 2777.32,4494.43 L 2598.99,4597.39 Z " />
<path stroke="transparent" fill="#000000" transform="matrix(0.0666667 0 0 0.0666667 -114.133 -211.067)" d="M 3258.66,4510.5 L 3270.32,4518 L 3270.98,4531.85 L 3132.8,4632.04 L 3102.8,4580.08 L 3258.66,4510.5 Z " />
<path stroke="transparent" fill="#000000" transform="matrix(0.0666667 0 0 0.0666667 -114.133 -211.067)" d="M 3519.74,4648.53 L 3519.74,4675.47 L 3270.98,4531.85 L 3270.32,4518 L 3281.99,4511.27 L 3519.74,4648.53 Z " />
<path stroke="transparent" fill="#000000" transform="matrix(0.0666667 0 0 0.0666667 -114.133 -211.067)" d="M 3258.66,4223.27 L 3281.99,4236.73 L 3281.99,4511.27 L 3270.32,4518 L 3258.66,4510.5 L 3258.66,4223.27 Z " />
<text x="0" y="0" stroke="transparent" fill="#000000" transform="matrix(0.0666667 0 0 0.0666667 131.944 95.3333)" style="font:normal normal normal 200px 'Arial'" >
OH</text>
<path stroke="transparent" fill="#000000" transform="matrix(0.0666667 0 0 0.0666667 -114.133 -211.067)" d="M 3670.67,4561.39 L 3682.34,4581.59 L 3519.74,4675.47 L 3519.74,4648.53 L 3670.67,4561.39 Z " />
<text x="0" y="0" stroke="transparent" fill="#000000" transform="matrix(0.0666667 0 0 0.0666667 115.316 124.133)" style="font:normal normal normal 200px 'Arial'" >
O</text>
<path stroke="transparent" fill="#000000" transform="matrix(0.0666667 0 0 0.0666667 -114.133 -211.067)" d="M 3560.56,4852.87 L 3537.23,4852.87 L 3537.23,4645.16 L 3560.56,4645.16 L 3560.56,4852.87 Z " />
<path stroke="transparent" fill="#000000" transform="matrix(0.0666667 0 0 0.0666667 -114.133 -211.067)" d="M 3502.24,4852.87 L 3478.91,4852.87 L 3478.91,4645.16 L 3502.24,4645.16 L 3502.24,4852.87 Z " />
<path stroke="transparent" fill="#000000" transform="matrix(0.0666667 0 0 0.0666667 -114.133 -211.067)" d="M 3508.07,4079.27 L 3531.4,4092.73 L 3281.99,4236.73 L 3258.66,4223.27 L 3508.07,4079.27 Z " />
<path stroke="transparent" fill="#000000" transform="matrix(0.0666667 0 0 0.0666667 -114.133 -211.067)" d="M 3508.07,3791.27 L 3531.4,3804.73 L 3531.4,4092.73 L 3508.07,4079.27 L 3508.07,3791.27 Z " />
<text x="0" y="0" stroke="transparent" fill="#000000" transform="matrix(0.0666667 0 0 0.0666667 132.344 37.7333)" style="font:normal normal normal 200px 'Arial'" >
NH</text>
<text x="0" y="0" stroke="transparent" fill="#000000" transform="matrix(0.0666667 0 0 0.0666667 151.601 40.6667)" style="font:normal normal normal 150px 'Arial'" >
2</text>
<path stroke="transparent" fill="#000000" transform="matrix(0.0666667 0 0 0.0666667 -114.133 -211.067)" d="M 3659.36,3703.92 L 3671.02,3724.13 L 3531.4,3804.73 L 3508.07,3791.27 L 3659.36,3703.92 Z " />
<text x="0" y="0" stroke="transparent" fill="#000000" transform="matrix(0.0666667 0 0 0.0666667 98.6882 37.7333)" style="font:normal normal normal 200px 'Arial'" >
O</text>
<path stroke="transparent" fill="#000000" transform="matrix(0.0666667 0 0 0.0666667 -114.133 -211.067)" d="M 3342.99,3743.09 L 3354.66,3722.89 L 3525.57,3821.57 L 3513.91,3841.77 L 3342.99,3743.09 Z " />
<path stroke="transparent" fill="#000000" transform="matrix(0.0666667 0 0 0.0666667 -114.133 -211.067)" d="M 3372.15,3692.59 L 3383.82,3672.39 L 3554.73,3771.06 L 3543.07,3791.27 L 3372.15,3692.59 Z " />
<path stroke="transparent" fill="#000000" transform="matrix(0.0666667 0 0 0.0666667 -114.133 -211.067)" d="M 2261,3372.73 L 2284.33,3359.27 L 2284.33,3647.27 L 2261,3660.73 L 2261,3372.73 Z " />
<path stroke="transparent" fill="#000000" transform="matrix(0.0666667 0 0 0.0666667 -114.133 -211.067)" d="M 2023.25,3235.47 L 2023.25,3208.53 L 2284.33,3359.27 L 2261,3372.73 L 2023.25,3235.47 Z " />
<path stroke="transparent" fill="#000000" transform="matrix(0.0666667 0 0 0.0666667 -114.133 -211.067)" d="M 1785.49,3372.73 L 1762.17,3359.27 L 2023.25,3208.53 L 2023.25,3235.47 L 1785.49,3372.73 Z " />
<path stroke="transparent" fill="#000000" transform="matrix(0.0666667 0 0 0.0666667 -114.133 -211.067)" d="M 1837.98,3409.77 L 1826.32,3389.57 L 2017.41,3279.24 L 2029.08,3299.44 L 1837.98,3409.77 Z " />
<path stroke="transparent" fill="#000000" transform="matrix(0.0666667 0 0 0.0666667 -114.133 -211.067)" d="M 1785.49,3647.27 L 1762.17,3660.73 L 1762.17,3359.27 L 1785.49,3372.73 L 1785.49,3647.27 Z " />
<path stroke="transparent" fill="#000000" transform="matrix(0.0666667 0 0 0.0666667 -114.133 -211.067)" d="M 2029.08,3787.9 L 2017.41,3808.1 L 1762.17,3660.73 L 1785.49,3647.27 L 2029.08,3787.9 Z " />
</svg>
