<?xml version="1.0" standalone="no" ?>
<!DOCTYPE svg PUBLIC "-//W3C//DTD SVG 1.1//EN" "http://www.w3.org/Graphics/SVG/1.1/DTD/svg11.dtd">
<svg width="284px" height="96px" viewBox="0 0 284 96" style="background-color: #ffffff00" xmlns="http://www.w3.org/2000/svg" xmlns:xlink="http://www.w3.org/1999/xlink" version="1.1" >
<text x="0" y="0" stroke="transparent" fill="#000000" transform="matrix(0.0666667 0 0 0.0666667 59.1228 61.9609)" style="font:normal normal normal 200px 'Arial'" >
O</text>
<path stroke="transparent" fill="#000000" transform="matrix(0.0666667 0 0 0.0666667 -156.033 -457.2)" d="M 2896.32,7868.18 L 2882.74,7879.71 L 2879.84,7872.73 L 3016.34,7636.3 L 3026.74,7630.3 L 3029.6,7637.35 L 2896.32,7868.18 Z " />
<path stroke="transparent" fill="#000000" transform="matrix(0.0666667 0 0 0.0666667 -156.033 -457.2)" d="M 3114.65,7785.63 L 3201.65,7822.74 L 2882.49,7885.86 L 2882.74,7879.71 L 2896.32,7868.18 L 3114.65,7785.63 Z " />
<path stroke="transparent" fill="#000000" transform="matrix(0.0666667 0 0 0.0666667 -156.033 -457.2)" d="M 3424.84,7846.61 L 3438.25,7879.71 L 3432.25,7909.4 L 3201.65,7822.74 L 3114.65,7785.63 L 3424.84,7846.61 Z " />
<path stroke="transparent" fill="#000000" transform="matrix(0.0666667 0 0 0.0666667 -156.033 -457.2)" d="M 3567.8,7640.67 L 3582.28,7630.3 L 3588.28,7631.59 L 3444.25,7937.09 L 3438.25,7879.71 L 3424.84,7846.61 L 3567.8,7640.67 Z " />
<path stroke="transparent" fill="#000000" transform="matrix(0.0666667 0 0 0.0666667 -156.033 -457.2)" d="M 3402.26,7687.97 L 3398.96,7676.43 L 3576.28,7625.77 L 3582.28,7630.3 L 3567.8,7640.67 L 3402.26,7687.97 Z " />
<path stroke="transparent" fill="#000000" transform="matrix(0.0666667 0 0 0.0666667 -156.033 -457.2)" d="M 3029.6,7637.35 L 3026.74,7630.3 L 3027.57,7624.3 L 3211.8,7676.61 L 3208.52,7688.16 L 3029.6,7637.35 Z " />
<text x="0" y="0" stroke="transparent" fill="#000000" transform="matrix(0.0666667 0 0 0.0666667 2.77445 68.3448)" style="font:normal normal normal 200px 'Arial'" >
HO</text>
<path stroke="transparent" fill="#000000" transform="matrix(0.0666667 0 0 0.0666667 -156.033 -457.2)" d="M 2703.04,7837.77 L 2706.15,7826.18 L 2879.84,7872.73 L 2882.74,7879.71 L 2882.49,7885.86 L 2703.04,7837.77 Z " />
<path stroke="transparent" fill="#000000" transform="matrix(0.0666667 0 0 0.0666667 -156.033 -457.2)" d="M 2738.74,7636.3 L 2738.74,7624.3 L 3027.57,7624.3 L 3026.74,7630.3 L 3016.34,7636.3 L 2738.74,7636.3 Z " />
<text x="0" y="0" stroke="transparent" fill="#000000" transform="matrix(0.0666667 0 0 0.0666667 77.5854 37.4865)" style="font:normal normal normal 200px 'Arial'" >
O</text>
<path stroke="transparent" fill="#000000" transform="matrix(0.0666667 0 0 0.0666667 -156.033 -457.2)" d="M 3576.28,7454.13 L 3588.28,7454.13 L 3588.28,7631.59 L 3582.28,7630.3 L 3576.28,7625.77 L 3576.28,7454.13 Z " />
<path stroke="transparent" fill="#000000" transform="matrix(0.0666667 0 0 0.0666667 -156.033 -457.2)" d="M 3831.7,7191.37 L 3831.7,7205.23 L 3670.97,7298.02 L 3664.97,7287.63 L 3831.7,7191.37 Z " />
<path stroke="transparent" fill="#000000" transform="matrix(0.0666667 0 0 0.0666667 -156.033 -457.2)" d="M 3801.7,6910.3 L 3861.7,6910.3 L 3860.49,6922.3 L 3802.91,6922.3 L 3801.7,6910.3 Z " />
<path stroke="transparent" fill="#000000" transform="matrix(0.0666667 0 0 0.0666667 -156.033 -457.2)" d="M 3807.39,6966.75 L 3856,6966.75 L 3854.79,6978.75 L 3808.6,6978.75 L 3807.39,6966.75 Z " />
<path stroke="transparent" fill="#000000" transform="matrix(0.0666667 0 0 0.0666667 -156.033 -457.2)" d="M 3813.09,7023.21 L 3850.3,7023.21 L 3849.09,7035.21 L 3814.3,7035.21 L 3813.09,7023.21 Z " />
<path stroke="transparent" fill="#000000" transform="matrix(0.0666667 0 0 0.0666667 -156.033 -457.2)" d="M 3818.79,7079.67 L 3844.6,7079.67 L 3843.39,7091.67 L 3820,7091.67 L 3818.79,7079.67 Z " />
<path stroke="transparent" fill="#000000" transform="matrix(0.0666667 0 0 0.0666667 -156.033 -457.2)" d="M 3824.49,7136.12 L 3838.91,7136.12 L 3837.7,7148.12 L 3825.7,7148.12 L 3824.49,7136.12 Z " />
<path stroke="transparent" fill="#000000" transform="matrix(0.0666667 0 0 0.0666667 -156.033 -457.2)" d="M 4081.11,7335.37 L 4081.11,7349.23 L 3831.7,7205.23 L 3831.7,7191.37 L 4081.11,7335.37 Z " />
<path stroke="transparent" fill="#000000" transform="matrix(0.0666667 0 0 0.0666667 -156.033 -457.2)" d="M 4330.53,7191.37 L 4330.53,7205.23 L 4081.11,7349.23 L 4081.11,7335.37 L 4330.53,7191.37 Z " />
<path stroke="transparent" fill="#000000" transform="matrix(0.0666667 0 0 0.0666667 -156.033 -457.2)" d="M 4579.94,7335.37 L 4579.94,7349.23 L 4330.53,7205.23 L 4330.53,7191.37 L 4579.94,7335.37 Z " />
<path stroke="transparent" fill="#000000" transform="matrix(0.0666667 0 0 0.0666667 -156.033 -457.2)" d="M 4829.36,7191.37 L 4829.36,7205.23 L 4579.94,7349.23 L 4579.94,7335.37 L 4829.36,7191.37 Z " />
<path stroke="transparent" fill="#000000" transform="matrix(0.0666667 0 0 0.0666667 -156.033 -457.2)" d="M 5078.77,7335.37 L 5078.77,7349.23 L 4829.36,7205.23 L 4829.36,7191.37 L 5078.77,7335.37 Z " />
<path stroke="transparent" fill="#000000" transform="matrix(0.0666667 0 0 0.0666667 -156.033 -457.2)" d="M 5328.19,7191.37 L 5328.19,7205.23 L 5078.77,7349.23 L 5078.77,7335.37 L 5328.19,7191.37 Z " />
<path stroke="transparent" fill="#000000" transform="matrix(0.0666667 0 0 0.0666667 -156.033 -457.2)" d="M 5577.6,7335.37 L 5577.6,7349.23 L 5328.19,7205.23 L 5328.19,7191.37 L 5577.6,7335.37 Z " />
<path stroke="transparent" fill="#000000" transform="matrix(0.0666667 0 0 0.0666667 -156.033 -457.2)" d="M 5827.02,7191.37 L 5827.02,7205.23 L 5577.6,7349.23 L 5577.6,7335.37 L 5827.02,7191.37 Z " />
<path stroke="transparent" fill="#000000" transform="matrix(0.0666667 0 0 0.0666667 -156.033 -457.2)" d="M 6076.43,7335.37 L 6076.43,7349.23 L 5827.02,7205.23 L 5827.02,7191.37 L 6076.43,7335.37 Z " />
<text x="0" y="0" stroke="transparent" fill="#000000" transform="matrix(0.0666667 0 0 0.0666667 260.49 27.8865)" style="font:normal normal normal 200px 'Arial'" >
OH</text>
<path stroke="transparent" fill="#000000" transform="matrix(0.0666667 0 0 0.0666667 -156.033 -457.2)" d="M 6230.17,7246.61 L 6236.17,7257 L 6076.43,7349.23 L 6076.43,7335.37 L 6230.17,7246.61 Z " />
<text x="0" y="0" stroke="transparent" fill="#000000" transform="matrix(0.0666667 0 0 0.0666667 243.862 56.6865)" style="font:normal normal normal 200px 'Arial'" >
O</text>
<path stroke="transparent" fill="#000000" transform="matrix(0.0666667 0 0 0.0666667 -156.033 -457.2)" d="M 6108.35,7533.13 L 6096.35,7533.13 L 6096.35,7327.33 L 6108.35,7327.33 L 6108.35,7533.13 Z " />
<path stroke="transparent" fill="#000000" transform="matrix(0.0666667 0 0 0.0666667 -156.033 -457.2)" d="M 6056.51,7533.13 L 6044.51,7533.13 L 6044.51,7327.33 L 6056.51,7327.33 L 6056.51,7533.13 Z " />
<text x="0" y="0" stroke="transparent" fill="#000000" transform="matrix(0.0666667 0 0 0.0666667 67.9832 92.5141)" style="font:normal normal normal 200px 'Arial'" >
OH</text>
<path stroke="transparent" fill="#000000" transform="matrix(0.0666667 0 0 0.0666667 -156.033 -457.2)" d="M 3444.25,8070.55 L 3432.25,8070.55 L 3432.25,7909.4 L 3438.25,7879.71 L 3444.25,7937.09 L 3444.25,8070.55 Z " />
</svg>
